<svg width="335" height="159" viewBox="0 0 335 159" fill="none" xmlns="http://www.w3.org/2000/svg">
<g clip-path="url(#clip0)">
<rect x="235.102" y="31" width="12" height="12" transform="rotate(0.486692 235.102 31)" fill="#04D361"/>
<rect x="170.102" y="31" width="12" height="12" transform="rotate(0.486692 170.102 31)" fill="#04D361"/>
<rect x="235" y="50" width="12" height="39" fill="black"/>
<rect x="170" y="50" width="12" height="39" fill="black"/>
<path d="M123.969 67.5547C123.969 61.0703 125.505 55.849 128.578 51.8906C131.677 47.9323 135.844 45.9531 141.078 45.9531C145.714 45.9531 149.32 47.5417 151.898 50.7188L152.367 46.7344H162.602V87.5938C162.602 91.2917 161.755 94.5078 160.062 97.2422C158.396 99.9766 156.039 102.06 152.992 103.492C149.945 104.924 146.378 105.641 142.289 105.641C139.19 105.641 136.169 105.016 133.227 103.766C130.284 102.542 128.057 100.953 126.547 99L131.547 92.125C134.359 95.276 137.771 96.8516 141.781 96.8516C144.776 96.8516 147.107 96.0443 148.773 94.4297C150.44 92.8411 151.273 90.5755 151.273 87.6328V85.3672C148.669 88.3099 145.245 89.7812 141 89.7812C135.922 89.7812 131.807 87.8021 128.656 83.8438C125.531 79.8594 123.969 74.5859 123.969 68.0234V67.5547ZM135.258 68.375C135.258 72.2031 136.026 75.2109 137.562 77.3984C139.099 79.5599 141.208 80.6406 143.891 80.6406C147.328 80.6406 149.789 79.3516 151.273 76.7734V59C149.763 56.4219 147.328 55.1328 143.969 55.1328C141.26 55.1328 139.125 56.2396 137.562 58.4531C136.026 60.6667 135.258 63.974 135.258 68.375ZM229.32 68.2578C229.32 75.0286 227.875 80.3151 224.984 84.1172C222.094 87.8932 218.057 89.7812 212.875 89.7812C208.292 89.7812 204.633 88.0234 201.898 84.5078L201.391 89H191.234V29H202.523V50.5234C205.128 47.4766 208.552 45.9531 212.797 45.9531C217.953 45.9531 221.99 47.8542 224.906 51.6562C227.849 55.4323 229.32 60.7578 229.32 67.6328V68.2578ZM218.031 67.4375C218.031 63.1667 217.354 60.0547 216 58.1016C214.646 56.1224 212.628 55.1328 209.945 55.1328C206.352 55.1328 203.878 56.6042 202.523 59.5469V76.2266C203.904 79.1953 206.404 80.6797 210.023 80.6797C213.669 80.6797 216.065 78.8828 217.211 75.2891C217.758 73.5703 218.031 70.9531 218.031 67.4375Z" fill="black"/>
<path d="M259.32 89V55.0156H253.031V46.7344H259.32V43.1406C259.32 38.401 260.674 34.7292 263.383 32.125C266.117 29.4948 269.932 28.1797 274.828 28.1797C276.391 28.1797 278.305 28.4401 280.57 28.9609L280.453 37.7109C279.516 37.4766 278.37 37.3594 277.016 37.3594C272.771 37.3594 270.648 39.3516 270.648 43.3359V46.7344H279.047V55.0156H270.648V89H259.32ZM300.688 73.0234L308.5 46.7344H320.609L303.617 95.5625L302.68 97.7891C300.154 103.31 295.987 106.07 290.18 106.07C288.539 106.07 286.872 105.823 285.18 105.328V96.7734L286.898 96.8125C289.034 96.8125 290.622 96.487 291.664 95.8359C292.732 95.1849 293.565 94.1042 294.164 92.5938L295.492 89.1172L280.688 46.7344H292.836L300.688 73.0234Z" fill="#04D361"/>
</g>
<rect width="110" height="138" transform="translate(4 12)" fill="black"/>
<g filter="url(#filter0_d)">
<path d="M89.2638 84.0684C89.9912 90.8001 89.1222 96.2112 86.6568 100.302C84.1885 104.367 80.3783 106.677 75.226 107.234C70.6692 107.726 66.8426 106.372 63.7464 103.17L63.7241 107.691L53.6267 108.782L47.1806 49.1296L58.4044 47.9167L60.7167 69.3156C62.9785 66.0066 66.2195 64.1241 70.4397 63.668C75.5661 63.1141 79.7834 64.5705 83.0917 68.0372C86.423 71.4752 88.458 76.6118 89.1966 83.4471L89.2638 84.0684ZM77.9519 84.4657C77.4931 80.2196 76.4856 77.1984 74.9294 75.402C73.3705 73.5798 71.2576 72.8128 68.5908 73.1009C65.0179 73.487 62.7163 75.2156 61.6861 78.2868L63.4781 94.87C65.1693 97.6732 67.8143 98.8804 71.4131 98.4916C75.0378 98.0999 77.2268 96.056 77.9799 92.36C78.3389 90.5924 78.3296 87.961 77.9519 84.4657Z" fill="#04D361"/>
</g>
<rect x="54" y="112.318" width="10" height="10" transform="rotate(-6.30513 54 112.318)" fill="#04D361"/>
<g filter="url(#filter1_d)">
<path d="M22.032 69.028C21.3076 62.5842 22.2512 57.2239 24.8627 52.947C27.5001 48.6673 31.4195 46.235 36.6212 45.6503C41.2276 45.1325 44.9892 46.3082 47.9061 49.1774L47.9268 45.1656L58.0972 44.0223L62.6616 84.6259C63.0747 88.3007 62.5929 91.5912 61.2162 94.4976C59.8655 97.401 57.7562 99.7346 54.8884 101.498C52.0206 103.262 48.5552 104.372 44.4922 104.829C41.4127 105.175 38.3409 104.891 35.277 103.978C32.216 103.09 29.8259 101.761 28.1068 99.9884L32.3075 92.5979C35.4544 95.4151 39.0205 96.5996 43.0058 96.1516C45.9818 95.8171 48.2078 94.7545 49.6837 92.9638C51.1624 91.199 51.7375 88.8545 51.4087 85.9302L51.1556 83.6787C48.8965 86.8939 45.6578 88.7386 41.4396 89.2128C36.3932 89.7801 32.0833 88.273 28.5098 84.6914C24.9593 81.0811 22.8175 76.0152 22.0844 69.4938L22.032 69.028ZM33.342 68.582C33.7697 72.3862 34.8691 75.2894 36.6403 77.2915C38.4086 79.2678 40.6255 80.1061 43.291 79.8065C46.707 79.4225 49.0085 77.8666 50.1956 75.1388L48.2101 57.4766C46.4212 55.0833 43.8575 54.0743 40.5192 54.4496C37.8278 54.7522 35.8294 56.0906 34.5239 58.4648C33.2444 60.8361 32.8504 64.2085 33.342 68.582Z" fill="#04D361"/>
</g>
<rect x="45.9812" y="31.4067" width="10" height="10" transform="rotate(-6.8637 45.9812 31.4067)" fill="#04D361"/>
<path d="M143.16 126.078L145.457 113.938H148.961L145.176 131H141.637L138.859 119.586L136.082 131H132.543L128.758 113.938H132.262L134.57 126.055L137.383 113.938H140.359L143.16 126.078ZM156.109 131.234C154.25 131.234 152.734 130.664 151.562 129.523C150.398 128.383 149.816 126.863 149.816 124.965V124.637C149.816 123.363 150.062 122.227 150.555 121.227C151.047 120.219 151.742 119.445 152.641 118.906C153.547 118.359 154.578 118.086 155.734 118.086C157.469 118.086 158.832 118.633 159.824 119.727C160.824 120.82 161.324 122.371 161.324 124.379V125.762H153.25C153.359 126.59 153.688 127.254 154.234 127.754C154.789 128.254 155.488 128.504 156.332 128.504C157.637 128.504 158.656 128.031 159.391 127.086L161.055 128.949C160.547 129.668 159.859 130.23 158.992 130.637C158.125 131.035 157.164 131.234 156.109 131.234ZM155.723 120.828C155.051 120.828 154.504 121.055 154.082 121.508C153.668 121.961 153.402 122.609 153.285 123.453H157.996V123.184C157.98 122.434 157.777 121.855 157.387 121.449C156.996 121.035 156.441 120.828 155.723 120.828ZM174.684 124.777C174.684 126.809 174.25 128.395 173.383 129.535C172.516 130.668 171.305 131.234 169.75 131.234C168.375 131.234 167.277 130.707 166.457 129.652L166.305 131H163.258V113H166.645V119.457C167.426 118.543 168.453 118.086 169.727 118.086C171.273 118.086 172.484 118.656 173.359 119.797C174.242 120.93 174.684 122.527 174.684 124.59V124.777ZM171.297 124.531C171.297 123.25 171.094 122.316 170.688 121.73C170.281 121.137 169.676 120.84 168.871 120.84C167.793 120.84 167.051 121.281 166.645 122.164V127.168C167.059 128.059 167.809 128.504 168.895 128.504C169.988 128.504 170.707 127.965 171.051 126.887C171.215 126.371 171.297 125.586 171.297 124.531ZM182.98 131V113.938H188.23C189.73 113.938 191.07 114.277 192.25 114.957C193.438 115.629 194.363 116.59 195.027 117.84C195.691 119.082 196.023 120.496 196.023 122.082V122.867C196.023 124.453 195.695 125.863 195.039 127.098C194.391 128.332 193.473 129.289 192.285 129.969C191.098 130.648 189.758 130.992 188.266 131H182.98ZM186.496 116.785V128.176H188.195C189.57 128.176 190.621 127.727 191.348 126.828C192.074 125.93 192.445 124.645 192.461 122.973V122.07C192.461 120.336 192.102 119.023 191.383 118.133C190.664 117.234 189.613 116.785 188.23 116.785H186.496ZM204.203 131.234C202.344 131.234 200.828 130.664 199.656 129.523C198.492 128.383 197.91 126.863 197.91 124.965V124.637C197.91 123.363 198.156 122.227 198.648 121.227C199.141 120.219 199.836 119.445 200.734 118.906C201.641 118.359 202.672 118.086 203.828 118.086C205.562 118.086 206.926 118.633 207.918 119.727C208.918 120.82 209.418 122.371 209.418 124.379V125.762H201.344C201.453 126.59 201.781 127.254 202.328 127.754C202.883 128.254 203.582 128.504 204.426 128.504C205.73 128.504 206.75 128.031 207.484 127.086L209.148 128.949C208.641 129.668 207.953 130.23 207.086 130.637C206.219 131.035 205.258 131.234 204.203 131.234ZM203.816 120.828C203.145 120.828 202.598 121.055 202.176 121.508C201.762 121.961 201.496 122.609 201.379 123.453H206.09V123.184C206.074 122.434 205.871 121.855 205.48 121.449C205.09 121.035 204.535 120.828 203.816 120.828ZM215.934 126.863L218.289 118.32H221.828L217.551 131H214.316L210.039 118.32H213.578L215.934 126.863ZM229 131.234C227.141 131.234 225.625 130.664 224.453 129.523C223.289 128.383 222.707 126.863 222.707 124.965V124.637C222.707 123.363 222.953 122.227 223.445 121.227C223.938 120.219 224.633 119.445 225.531 118.906C226.438 118.359 227.469 118.086 228.625 118.086C230.359 118.086 231.723 118.633 232.715 119.727C233.715 120.82 234.215 122.371 234.215 124.379V125.762H226.141C226.25 126.59 226.578 127.254 227.125 127.754C227.68 128.254 228.379 128.504 229.223 128.504C230.527 128.504 231.547 128.031 232.281 127.086L233.945 128.949C233.438 129.668 232.75 130.23 231.883 130.637C231.016 131.035 230.055 131.234 229 131.234ZM228.613 120.828C227.941 120.828 227.395 121.055 226.973 121.508C226.559 121.961 226.293 122.609 226.176 123.453H230.887V123.184C230.871 122.434 230.668 121.855 230.277 121.449C229.887 121.035 229.332 120.828 228.613 120.828ZM239.723 131H236.324V113H239.723V131ZM241.996 124.543C241.996 123.285 242.238 122.164 242.723 121.18C243.207 120.195 243.902 119.434 244.809 118.895C245.723 118.355 246.781 118.086 247.984 118.086C249.695 118.086 251.09 118.609 252.168 119.656C253.254 120.703 253.859 122.125 253.984 123.922L254.008 124.789C254.008 126.734 253.465 128.297 252.379 129.477C251.293 130.648 249.836 131.234 248.008 131.234C246.18 131.234 244.719 130.648 243.625 129.477C242.539 128.305 241.996 126.711 241.996 124.695V124.543ZM245.383 124.789C245.383 125.992 245.609 126.914 246.062 127.555C246.516 128.188 247.164 128.504 248.008 128.504C248.828 128.504 249.469 128.191 249.93 127.566C250.391 126.934 250.621 125.926 250.621 124.543C250.621 123.363 250.391 122.449 249.93 121.801C249.469 121.152 248.82 120.828 247.984 120.828C247.156 120.828 246.516 121.152 246.062 121.801C245.609 122.441 245.383 123.438 245.383 124.789ZM267.508 124.777C267.508 126.73 267.062 128.297 266.172 129.477C265.289 130.648 264.094 131.234 262.586 131.234C261.305 131.234 260.27 130.789 259.48 129.898V135.875H256.094V118.32H259.234L259.352 119.562C260.172 118.578 261.242 118.086 262.562 118.086C264.125 118.086 265.34 118.664 266.207 119.82C267.074 120.977 267.508 122.57 267.508 124.602V124.777ZM264.121 124.531C264.121 123.352 263.91 122.441 263.488 121.801C263.074 121.16 262.469 120.84 261.672 120.84C260.609 120.84 259.879 121.246 259.48 122.059V127.25C259.895 128.086 260.633 128.504 261.695 128.504C263.312 128.504 264.121 127.18 264.121 124.531ZM272.793 118.32L272.898 119.738C273.797 118.637 275.012 118.086 276.543 118.086C278.176 118.086 279.297 118.73 279.906 120.02C280.797 118.73 282.066 118.086 283.715 118.086C285.09 118.086 286.113 118.488 286.785 119.293C287.457 120.09 287.793 121.293 287.793 122.902V131H284.395V122.914C284.395 122.195 284.254 121.672 283.973 121.344C283.691 121.008 283.195 120.84 282.484 120.84C281.469 120.84 280.766 121.324 280.375 122.293L280.387 131H277V122.926C277 122.191 276.855 121.66 276.566 121.332C276.277 121.004 275.785 120.84 275.09 120.84C274.129 120.84 273.434 121.238 273.004 122.035V131H269.617V118.32H272.793ZM296.242 131.234C294.383 131.234 292.867 130.664 291.695 129.523C290.531 128.383 289.949 126.863 289.949 124.965V124.637C289.949 123.363 290.195 122.227 290.688 121.227C291.18 120.219 291.875 119.445 292.773 118.906C293.68 118.359 294.711 118.086 295.867 118.086C297.602 118.086 298.965 118.633 299.957 119.727C300.957 120.82 301.457 122.371 301.457 124.379V125.762H293.383C293.492 126.59 293.82 127.254 294.367 127.754C294.922 128.254 295.621 128.504 296.465 128.504C297.77 128.504 298.789 128.031 299.523 127.086L301.188 128.949C300.68 129.668 299.992 130.23 299.125 130.637C298.258 131.035 297.297 131.234 296.242 131.234ZM295.855 120.828C295.184 120.828 294.637 121.055 294.215 121.508C293.801 121.961 293.535 122.609 293.418 123.453H298.129V123.184C298.113 122.434 297.91 121.855 297.52 121.449C297.129 121.035 296.574 120.828 295.855 120.828ZM306.508 118.32L306.613 119.785C307.52 118.652 308.734 118.086 310.258 118.086C311.602 118.086 312.602 118.48 313.258 119.27C313.914 120.059 314.25 121.238 314.266 122.809V131H310.879V122.891C310.879 122.172 310.723 121.652 310.41 121.332C310.098 121.004 309.578 120.84 308.852 120.84C307.898 120.84 307.184 121.246 306.707 122.059V131H303.32V118.32H306.508ZM320.898 115.203V118.32H323.066V120.805H320.898V127.133C320.898 127.602 320.988 127.938 321.168 128.141C321.348 128.344 321.691 128.445 322.199 128.445C322.574 128.445 322.906 128.418 323.195 128.363V130.93C322.531 131.133 321.848 131.234 321.145 131.234C318.77 131.234 317.559 130.035 317.512 127.637V120.805H315.66V118.32H317.512V115.203H320.898Z" fill="black"/>
<defs>
<filter id="filter0_d" x="43.1807" y="47.9167" width="50.3317" height="68.8656" filterUnits="userSpaceOnUse" color-interpolation-filters="sRGB">
<feFlood flood-opacity="0" result="BackgroundImageFix"/>
<feColorMatrix in="SourceAlpha" type="matrix" values="0 0 0 0 0 0 0 0 0 0 0 0 0 0 0 0 0 0 127 0"/>
<feOffset dy="4"/>
<feGaussianBlur stdDeviation="2"/>
<feColorMatrix type="matrix" values="0 0 0 0 0 0 0 0 0 0 0 0 0 0 0 0 0 0 0.25 0"/>
<feBlend mode="normal" in2="BackgroundImageFix" result="effect1_dropShadow"/>
<feBlend mode="normal" in="SourceGraphic" in2="effect1_dropShadow" result="shape"/>
</filter>
<filter id="filter1_d" x="17.796" y="44.0223" width="49.0085" height="68.9494" filterUnits="userSpaceOnUse" color-interpolation-filters="sRGB">
<feFlood flood-opacity="0" result="BackgroundImageFix"/>
<feColorMatrix in="SourceAlpha" type="matrix" values="0 0 0 0 0 0 0 0 0 0 0 0 0 0 0 0 0 0 127 0"/>
<feOffset dy="4"/>
<feGaussianBlur stdDeviation="2"/>
<feColorMatrix type="matrix" values="0 0 0 0 0 0 0 0 0 0 0 0 0 0 0 0 0 0 0.25 0"/>
<feBlend mode="normal" in2="BackgroundImageFix" result="effect1_dropShadow"/>
<feBlend mode="normal" in="SourceGraphic" in2="effect1_dropShadow" result="shape"/>
</filter>
<clipPath id="clip0">
<rect width="205" height="94" fill="white" transform="translate(121 18)"/>
</clipPath>
</defs>
</svg>
