<svg width="369" height="159" viewBox="0 0 369 159" fill="none" xmlns="http://www.w3.org/2000/svg">
<g clip-path="url(#clip0)">
<rect x="268.102" y="31" width="12" height="12" transform="rotate(0.486692 268.102 31)" fill="#04D361"/>
<rect x="203.102" y="31" width="12" height="12" transform="rotate(0.486692 203.102 31)" fill="#04D361"/>
<rect x="268" y="50" width="12" height="39" fill="black"/>
<rect x="203" y="50" width="12" height="39" fill="black"/>
<path d="M156.969 67.5547C156.969 61.0703 158.505 55.849 161.578 51.8906C164.677 47.9323 168.844 45.9531 174.078 45.9531C178.714 45.9531 182.32 47.5417 184.898 50.7188L185.367 46.7344H195.602V87.5938C195.602 91.2917 194.755 94.5078 193.062 97.2422C191.396 99.9766 189.039 102.06 185.992 103.492C182.945 104.924 179.378 105.641 175.289 105.641C172.19 105.641 169.169 105.016 166.227 103.766C163.284 102.542 161.057 100.953 159.547 99L164.547 92.125C167.359 95.276 170.771 96.8516 174.781 96.8516C177.776 96.8516 180.107 96.0443 181.773 94.4297C183.44 92.8411 184.273 90.5755 184.273 87.6328V85.3672C181.669 88.3099 178.245 89.7812 174 89.7812C168.922 89.7812 164.807 87.8021 161.656 83.8438C158.531 79.8594 156.969 74.5859 156.969 68.0234V67.5547ZM168.258 68.375C168.258 72.2031 169.026 75.2109 170.562 77.3984C172.099 79.5599 174.208 80.6406 176.891 80.6406C180.328 80.6406 182.789 79.3516 184.273 76.7734V59C182.763 56.4219 180.328 55.1328 176.969 55.1328C174.26 55.1328 172.125 56.2396 170.562 58.4531C169.026 60.6667 168.258 63.974 168.258 68.375ZM262.32 68.2578C262.32 75.0286 260.875 80.3151 257.984 84.1172C255.094 87.8932 251.057 89.7812 245.875 89.7812C241.292 89.7812 237.633 88.0234 234.898 84.5078L234.391 89H224.234V29H235.523V50.5234C238.128 47.4766 241.552 45.9531 245.797 45.9531C250.953 45.9531 254.99 47.8542 257.906 51.6562C260.849 55.4323 262.32 60.7578 262.32 67.6328V68.2578ZM251.031 67.4375C251.031 63.1667 250.354 60.0547 249 58.1016C247.646 56.1224 245.628 55.1328 242.945 55.1328C239.352 55.1328 236.878 56.6042 235.523 59.5469V76.2266C236.904 79.1953 239.404 80.6797 243.023 80.6797C246.669 80.6797 249.065 78.8828 250.211 75.2891C250.758 73.5703 251.031 70.9531 251.031 67.4375Z" fill="black"/>
<path d="M292.32 89V55.0156H286.031V46.7344H292.32V43.1406C292.32 38.401 293.674 34.7292 296.383 32.125C299.117 29.4948 302.932 28.1797 307.828 28.1797C309.391 28.1797 311.305 28.4401 313.57 28.9609L313.453 37.7109C312.516 37.4766 311.37 37.3594 310.016 37.3594C305.771 37.3594 303.648 39.3516 303.648 43.3359V46.7344H312.047V55.0156H303.648V89H292.32ZM333.688 73.0234L341.5 46.7344H353.609L336.617 95.5625L335.68 97.7891C333.154 103.31 328.987 106.07 323.18 106.07C321.539 106.07 319.872 105.823 318.18 105.328V96.7734L319.898 96.8125C322.034 96.8125 323.622 96.487 324.664 95.8359C325.732 95.1849 326.565 94.1042 327.164 92.5938L328.492 89.1172L313.688 46.7344H325.836L333.688 73.0234Z" fill="#04D361"/>
</g>
<rect width="140" height="140" transform="translate(6 10)" fill="black"/>
<g filter="url(#filter0_d)">
<path d="M112.264 96.0684C112.991 102.8 112.122 108.211 109.657 112.302C107.189 116.367 103.378 118.677 98.226 119.234C93.6692 119.726 89.8426 118.372 86.7464 115.17L86.7241 119.691L76.6267 120.782L70.1806 61.1296L81.4044 59.9167L83.7167 81.3156C85.9785 78.0066 89.2195 76.1241 93.4397 75.668C98.5661 75.1141 102.783 76.5705 106.092 80.0372C109.423 83.4752 111.458 88.6118 112.197 95.4471L112.264 96.0684ZM100.952 96.4657C100.493 92.2196 99.4856 89.1984 97.9294 87.402C96.3705 85.5798 94.2576 84.8128 91.5908 85.1009C88.0179 85.487 85.7163 87.2156 84.6861 90.2868L86.4781 106.87C88.1693 109.673 90.8143 110.88 94.4131 110.492C98.0378 110.1 100.227 108.056 100.98 104.36C101.339 102.592 101.33 99.961 100.952 96.4657Z" fill="#04D361"/>
</g>
<rect x="77" y="124.318" width="10" height="10" transform="rotate(-6.30513 77 124.318)" fill="#04D361"/>
<g filter="url(#filter1_d)">
<path d="M44.032 68.028C43.3076 61.5842 44.2512 56.2239 46.8627 51.947C49.5001 47.6673 53.4195 45.235 58.6212 44.6503C63.2276 44.1325 66.9892 45.3082 69.9061 48.1774L69.9268 44.1656L80.0972 43.0223L84.6616 83.6259C85.0747 87.3007 84.5929 90.5912 83.2162 93.4976C81.8655 96.401 79.7562 98.7346 76.8884 100.498C74.0206 102.262 70.5552 103.372 66.4922 103.829C63.4127 104.175 60.3409 103.891 57.277 102.978C54.216 102.09 51.8259 100.761 50.1068 98.9884L54.3075 91.5979C57.4544 94.4151 61.0205 95.5996 65.0058 95.1516C67.9818 94.8171 70.2078 93.7545 71.6837 91.9638C73.1624 90.199 73.7375 87.8545 73.4087 84.9302L73.1556 82.6787C70.8965 85.8939 67.6578 87.7386 63.4396 88.2128C58.3932 88.7801 54.0833 87.273 50.5098 83.6914C46.9593 80.0811 44.8175 75.0152 44.0844 68.4938L44.032 68.028ZM55.342 67.582C55.7697 71.3862 56.8691 74.2894 58.6403 76.2915C60.4086 78.2678 62.6255 79.1061 65.291 78.8065C68.707 78.4225 71.0085 76.8666 72.1956 74.1388L70.2101 56.4766C68.4212 54.0833 65.8575 53.0743 62.5192 53.4496C59.8278 53.7522 57.8294 55.0906 56.5239 57.4648C55.2444 59.8361 54.8504 63.2085 55.342 67.582Z" fill="#04D361"/>
</g>
<rect x="67.9812" y="31.4067" width="10" height="10" transform="rotate(-6.8637 67.9812 31.4067)" fill="#04D361"/>
<path d="M179.16 126.078L181.457 113.938H184.961L181.176 131H177.637L174.859 119.586L172.082 131H168.543L164.758 113.938H168.262L170.57 126.055L173.383 113.938H176.359L179.16 126.078ZM192.109 131.234C190.25 131.234 188.734 130.664 187.562 129.523C186.398 128.383 185.816 126.863 185.816 124.965V124.637C185.816 123.363 186.062 122.227 186.555 121.227C187.047 120.219 187.742 119.445 188.641 118.906C189.547 118.359 190.578 118.086 191.734 118.086C193.469 118.086 194.832 118.633 195.824 119.727C196.824 120.82 197.324 122.371 197.324 124.379V125.762H189.25C189.359 126.59 189.688 127.254 190.234 127.754C190.789 128.254 191.488 128.504 192.332 128.504C193.637 128.504 194.656 128.031 195.391 127.086L197.055 128.949C196.547 129.668 195.859 130.23 194.992 130.637C194.125 131.035 193.164 131.234 192.109 131.234ZM191.723 120.828C191.051 120.828 190.504 121.055 190.082 121.508C189.668 121.961 189.402 122.609 189.285 123.453H193.996V123.184C193.98 122.434 193.777 121.855 193.387 121.449C192.996 121.035 192.441 120.828 191.723 120.828ZM210.684 124.777C210.684 126.809 210.25 128.395 209.383 129.535C208.516 130.668 207.305 131.234 205.75 131.234C204.375 131.234 203.277 130.707 202.457 129.652L202.305 131H199.258V113H202.645V119.457C203.426 118.543 204.453 118.086 205.727 118.086C207.273 118.086 208.484 118.656 209.359 119.797C210.242 120.93 210.684 122.527 210.684 124.59V124.777ZM207.297 124.531C207.297 123.25 207.094 122.316 206.688 121.73C206.281 121.137 205.676 120.84 204.871 120.84C203.793 120.84 203.051 121.281 202.645 122.164V127.168C203.059 128.059 203.809 128.504 204.895 128.504C205.988 128.504 206.707 127.965 207.051 126.887C207.215 126.371 207.297 125.586 207.297 124.531ZM218.98 131V113.938H224.23C225.73 113.938 227.07 114.277 228.25 114.957C229.438 115.629 230.363 116.59 231.027 117.84C231.691 119.082 232.023 120.496 232.023 122.082V122.867C232.023 124.453 231.695 125.863 231.039 127.098C230.391 128.332 229.473 129.289 228.285 129.969C227.098 130.648 225.758 130.992 224.266 131H218.98ZM222.496 116.785V128.176H224.195C225.57 128.176 226.621 127.727 227.348 126.828C228.074 125.93 228.445 124.645 228.461 122.973V122.07C228.461 120.336 228.102 119.023 227.383 118.133C226.664 117.234 225.613 116.785 224.23 116.785H222.496ZM240.203 131.234C238.344 131.234 236.828 130.664 235.656 129.523C234.492 128.383 233.91 126.863 233.91 124.965V124.637C233.91 123.363 234.156 122.227 234.648 121.227C235.141 120.219 235.836 119.445 236.734 118.906C237.641 118.359 238.672 118.086 239.828 118.086C241.562 118.086 242.926 118.633 243.918 119.727C244.918 120.82 245.418 122.371 245.418 124.379V125.762H237.344C237.453 126.59 237.781 127.254 238.328 127.754C238.883 128.254 239.582 128.504 240.426 128.504C241.73 128.504 242.75 128.031 243.484 127.086L245.148 128.949C244.641 129.668 243.953 130.23 243.086 130.637C242.219 131.035 241.258 131.234 240.203 131.234ZM239.816 120.828C239.145 120.828 238.598 121.055 238.176 121.508C237.762 121.961 237.496 122.609 237.379 123.453H242.09V123.184C242.074 122.434 241.871 121.855 241.48 121.449C241.09 121.035 240.535 120.828 239.816 120.828ZM251.934 126.863L254.289 118.32H257.828L253.551 131H250.316L246.039 118.32H249.578L251.934 126.863ZM265 131.234C263.141 131.234 261.625 130.664 260.453 129.523C259.289 128.383 258.707 126.863 258.707 124.965V124.637C258.707 123.363 258.953 122.227 259.445 121.227C259.938 120.219 260.633 119.445 261.531 118.906C262.438 118.359 263.469 118.086 264.625 118.086C266.359 118.086 267.723 118.633 268.715 119.727C269.715 120.82 270.215 122.371 270.215 124.379V125.762H262.141C262.25 126.59 262.578 127.254 263.125 127.754C263.68 128.254 264.379 128.504 265.223 128.504C266.527 128.504 267.547 128.031 268.281 127.086L269.945 128.949C269.438 129.668 268.75 130.23 267.883 130.637C267.016 131.035 266.055 131.234 265 131.234ZM264.613 120.828C263.941 120.828 263.395 121.055 262.973 121.508C262.559 121.961 262.293 122.609 262.176 123.453H266.887V123.184C266.871 122.434 266.668 121.855 266.277 121.449C265.887 121.035 265.332 120.828 264.613 120.828ZM275.723 131H272.324V113H275.723V131ZM277.996 124.543C277.996 123.285 278.238 122.164 278.723 121.18C279.207 120.195 279.902 119.434 280.809 118.895C281.723 118.355 282.781 118.086 283.984 118.086C285.695 118.086 287.09 118.609 288.168 119.656C289.254 120.703 289.859 122.125 289.984 123.922L290.008 124.789C290.008 126.734 289.465 128.297 288.379 129.477C287.293 130.648 285.836 131.234 284.008 131.234C282.18 131.234 280.719 130.648 279.625 129.477C278.539 128.305 277.996 126.711 277.996 124.695V124.543ZM281.383 124.789C281.383 125.992 281.609 126.914 282.062 127.555C282.516 128.188 283.164 128.504 284.008 128.504C284.828 128.504 285.469 128.191 285.93 127.566C286.391 126.934 286.621 125.926 286.621 124.543C286.621 123.363 286.391 122.449 285.93 121.801C285.469 121.152 284.82 120.828 283.984 120.828C283.156 120.828 282.516 121.152 282.062 121.801C281.609 122.441 281.383 123.438 281.383 124.789ZM303.508 124.777C303.508 126.73 303.062 128.297 302.172 129.477C301.289 130.648 300.094 131.234 298.586 131.234C297.305 131.234 296.27 130.789 295.48 129.898V135.875H292.094V118.32H295.234L295.352 119.562C296.172 118.578 297.242 118.086 298.562 118.086C300.125 118.086 301.34 118.664 302.207 119.82C303.074 120.977 303.508 122.57 303.508 124.602V124.777ZM300.121 124.531C300.121 123.352 299.91 122.441 299.488 121.801C299.074 121.16 298.469 120.84 297.672 120.84C296.609 120.84 295.879 121.246 295.48 122.059V127.25C295.895 128.086 296.633 128.504 297.695 128.504C299.312 128.504 300.121 127.18 300.121 124.531ZM308.793 118.32L308.898 119.738C309.797 118.637 311.012 118.086 312.543 118.086C314.176 118.086 315.297 118.73 315.906 120.02C316.797 118.73 318.066 118.086 319.715 118.086C321.09 118.086 322.113 118.488 322.785 119.293C323.457 120.09 323.793 121.293 323.793 122.902V131H320.395V122.914C320.395 122.195 320.254 121.672 319.973 121.344C319.691 121.008 319.195 120.84 318.484 120.84C317.469 120.84 316.766 121.324 316.375 122.293L316.387 131H313V122.926C313 122.191 312.855 121.66 312.566 121.332C312.277 121.004 311.785 120.84 311.09 120.84C310.129 120.84 309.434 121.238 309.004 122.035V131H305.617V118.32H308.793ZM332.242 131.234C330.383 131.234 328.867 130.664 327.695 129.523C326.531 128.383 325.949 126.863 325.949 124.965V124.637C325.949 123.363 326.195 122.227 326.688 121.227C327.18 120.219 327.875 119.445 328.773 118.906C329.68 118.359 330.711 118.086 331.867 118.086C333.602 118.086 334.965 118.633 335.957 119.727C336.957 120.82 337.457 122.371 337.457 124.379V125.762H329.383C329.492 126.59 329.82 127.254 330.367 127.754C330.922 128.254 331.621 128.504 332.465 128.504C333.77 128.504 334.789 128.031 335.523 127.086L337.188 128.949C336.68 129.668 335.992 130.23 335.125 130.637C334.258 131.035 333.297 131.234 332.242 131.234ZM331.855 120.828C331.184 120.828 330.637 121.055 330.215 121.508C329.801 121.961 329.535 122.609 329.418 123.453H334.129V123.184C334.113 122.434 333.91 121.855 333.52 121.449C333.129 121.035 332.574 120.828 331.855 120.828ZM342.508 118.32L342.613 119.785C343.52 118.652 344.734 118.086 346.258 118.086C347.602 118.086 348.602 118.48 349.258 119.27C349.914 120.059 350.25 121.238 350.266 122.809V131H346.879V122.891C346.879 122.172 346.723 121.652 346.41 121.332C346.098 121.004 345.578 120.84 344.852 120.84C343.898 120.84 343.184 121.246 342.707 122.059V131H339.32V118.32H342.508ZM356.898 115.203V118.32H359.066V120.805H356.898V127.133C356.898 127.602 356.988 127.938 357.168 128.141C357.348 128.344 357.691 128.445 358.199 128.445C358.574 128.445 358.906 128.418 359.195 128.363V130.93C358.531 131.133 357.848 131.234 357.145 131.234C354.77 131.234 353.559 130.035 353.512 127.637V120.805H351.66V118.32H353.512V115.203H356.898Z" fill="black"/>
<defs>
<filter id="filter0_d" x="66.1807" y="59.9167" width="50.3317" height="68.8656" filterUnits="userSpaceOnUse" color-interpolation-filters="sRGB">
<feFlood flood-opacity="0" result="BackgroundImageFix"/>
<feColorMatrix in="SourceAlpha" type="matrix" values="0 0 0 0 0 0 0 0 0 0 0 0 0 0 0 0 0 0 127 0"/>
<feOffset dy="4"/>
<feGaussianBlur stdDeviation="2"/>
<feColorMatrix type="matrix" values="0 0 0 0 0 0 0 0 0 0 0 0 0 0 0 0 0 0 0.25 0"/>
<feBlend mode="normal" in2="BackgroundImageFix" result="effect1_dropShadow"/>
<feBlend mode="normal" in="SourceGraphic" in2="effect1_dropShadow" result="shape"/>
</filter>
<filter id="filter1_d" x="39.796" y="43.0223" width="49.0085" height="68.9494" filterUnits="userSpaceOnUse" color-interpolation-filters="sRGB">
<feFlood flood-opacity="0" result="BackgroundImageFix"/>
<feColorMatrix in="SourceAlpha" type="matrix" values="0 0 0 0 0 0 0 0 0 0 0 0 0 0 0 0 0 0 127 0"/>
<feOffset dy="4"/>
<feGaussianBlur stdDeviation="2"/>
<feColorMatrix type="matrix" values="0 0 0 0 0 0 0 0 0 0 0 0 0 0 0 0 0 0 0.25 0"/>
<feBlend mode="normal" in2="BackgroundImageFix" result="effect1_dropShadow"/>
<feBlend mode="normal" in="SourceGraphic" in2="effect1_dropShadow" result="shape"/>
</filter>
<clipPath id="clip0">
<rect width="205" height="94" fill="white" transform="translate(154 18)"/>
</clipPath>
</defs>
</svg>
