<svg width="50" height="50" viewBox="0 0 50 50" fill="none" xmlns="http://www.w3.org/2000/svg">
<rect x="0.5" y="0.5" width="49" height="49" rx="24.5" fill="#FC941E"/>
<path d="M34.2269 17C30.7576 17 28.4312 20.26 28.4312 20.26V17.4541H22V36.8021H28.4309V25.9974C28.4309 25.419 28.4728 24.8415 28.6427 24.4279C29.1076 23.2728 30.1656 22.0762 31.9423 22.0762C34.2694 22.0762 35.2001 23.8505 35.2001 26.4515V36.8021H41.6306V25.7083C41.6306 19.7654 38.4577 17 34.2269 17Z" fill="#231F20"/>
<path d="M12 17H18.431V36.348H12V17Z" fill="#231F20"/>
<path d="M15.6381 8C13.4383 8 12 9.44452 12 11.3431C12 13.1998 13.3954 14.6855 15.5537 14.6855H15.5955C17.8383 14.6855 19.2341 13.1998 19.2341 11.3431C19.1922 9.44452 17.8383 8 15.6381 8V8Z" fill="#231F20"/>
<rect x="0.5" y="0.5" width="49" height="49" rx="24.5" stroke="black"/>
</svg>
