<svg width="384" height="159" viewBox="0 0 384 159" fill="none" xmlns="http://www.w3.org/2000/svg">
<g clip-path="url(#clip0)">
<rect x="268.102" y="31" width="12" height="12" transform="rotate(0.486692 268.102 31)" fill="#04D361"/>
<rect x="203.102" y="31" width="12" height="12" transform="rotate(0.486692 203.102 31)" fill="#04D361"/>
<rect x="268" y="47" width="12" height="42" fill="black"/>
<rect x="203" y="47" width="12" height="42" fill="black"/>
<path d="M156.969 67.5547C156.969 61.0703 158.505 55.849 161.578 51.8906C164.677 47.9323 168.844 45.9531 174.078 45.9531C178.714 45.9531 182.32 47.5417 184.898 50.7188L185.367 46.7344H195.602V87.5938C195.602 91.2917 194.755 94.5078 193.062 97.2422C191.396 99.9766 189.039 102.06 185.992 103.492C182.945 104.924 179.378 105.641 175.289 105.641C172.19 105.641 169.169 105.016 166.227 103.766C163.284 102.542 161.057 100.953 159.547 99L164.547 92.125C167.359 95.276 170.771 96.8516 174.781 96.8516C177.776 96.8516 180.107 96.0443 181.773 94.4297C183.44 92.8411 184.273 90.5755 184.273 87.6328V85.3672C181.669 88.3099 178.245 89.7812 174 89.7812C168.922 89.7812 164.807 87.8021 161.656 83.8438C158.531 79.8594 156.969 74.5859 156.969 68.0234V67.5547ZM168.258 68.375C168.258 72.2031 169.026 75.2109 170.562 77.3984C172.099 79.5599 174.208 80.6406 176.891 80.6406C180.328 80.6406 182.789 79.3516 184.273 76.7734V59C182.763 56.4219 180.328 55.1328 176.969 55.1328C174.26 55.1328 172.125 56.2396 170.562 58.4531C169.026 60.6667 168.258 63.974 168.258 68.375ZM262.32 68.2578C262.32 75.0286 260.875 80.3151 257.984 84.1172C255.094 87.8932 251.057 89.7812 245.875 89.7812C241.292 89.7812 237.633 88.0234 234.898 84.5078L234.391 89H224.234V29H235.523V50.5234C238.128 47.4766 241.552 45.9531 245.797 45.9531C250.953 45.9531 254.99 47.8542 257.906 51.6562C260.849 55.4323 262.32 60.7578 262.32 67.6328V68.2578ZM251.031 67.4375C251.031 63.1667 250.354 60.0547 249 58.1016C247.646 56.1224 245.628 55.1328 242.945 55.1328C239.352 55.1328 236.878 56.6042 235.523 59.5469V76.2266C236.904 79.1953 239.404 80.6797 243.023 80.6797C246.669 80.6797 249.065 78.8828 250.211 75.2891C250.758 73.5703 251.031 70.9531 251.031 67.4375Z" fill="black"/>
<path d="M292.32 89V55.0156H286.031V46.7344H292.32V43.1406C292.32 38.401 293.674 34.7292 296.383 32.125C299.117 29.4948 302.932 28.1797 307.828 28.1797C309.391 28.1797 311.305 28.4401 313.57 28.9609L313.453 37.7109C312.516 37.4766 311.37 37.3594 310.016 37.3594C305.771 37.3594 303.648 39.3516 303.648 43.3359V46.7344H312.047V55.0156H303.648V89H292.32ZM333.688 73.0234L341.5 46.7344H353.609L336.617 95.5625L335.68 97.7891C333.154 103.31 328.987 106.07 323.18 106.07C321.539 106.07 319.872 105.823 318.18 105.328V96.7734L319.898 96.8125C322.034 96.8125 323.622 96.487 324.664 95.8359C325.732 95.1849 326.565 94.1042 327.164 92.5938L328.492 89.1172L313.688 46.7344H325.836L333.688 73.0234Z" fill="#04D361"/>
</g>
<path d="M164.46 127H161.823V114.203H164.46V127ZM169.083 117.49L169.162 118.589C169.842 117.739 170.753 117.314 171.896 117.314C172.903 117.314 173.653 117.61 174.146 118.202C174.638 118.794 174.89 119.679 174.901 120.856V127H172.361V120.918C172.361 120.379 172.244 119.989 172.01 119.749C171.775 119.503 171.386 119.38 170.841 119.38C170.126 119.38 169.59 119.685 169.232 120.294V127H166.692V117.49H169.083ZM177.529 127V119.354H176.114V117.49H177.529V116.682C177.529 115.615 177.834 114.789 178.443 114.203C179.059 113.611 179.917 113.315 181.019 113.315C181.37 113.315 181.801 113.374 182.311 113.491L182.284 115.46C182.073 115.407 181.815 115.381 181.511 115.381C180.556 115.381 180.078 115.829 180.078 116.726V117.49H181.968V119.354H180.078V127H177.529ZM182.891 122.157C182.891 121.214 183.072 120.373 183.436 119.635C183.799 118.896 184.32 118.325 185 117.921C185.686 117.517 186.479 117.314 187.382 117.314C188.665 117.314 189.711 117.707 190.52 118.492C191.334 119.277 191.788 120.344 191.882 121.691L191.899 122.342C191.899 123.801 191.492 124.973 190.678 125.857C189.863 126.736 188.771 127.176 187.399 127.176C186.028 127.176 184.933 126.736 184.112 125.857C183.298 124.979 182.891 123.783 182.891 122.271V122.157ZM185.431 122.342C185.431 123.244 185.601 123.936 185.94 124.416C186.28 124.891 186.767 125.128 187.399 125.128C188.015 125.128 188.495 124.894 188.841 124.425C189.187 123.95 189.359 123.194 189.359 122.157C189.359 121.272 189.187 120.587 188.841 120.101C188.495 119.614 188.009 119.371 187.382 119.371C186.761 119.371 186.28 119.614 185.94 120.101C185.601 120.581 185.431 121.328 185.431 122.342ZM198.808 119.872C198.462 119.825 198.157 119.802 197.894 119.802C196.933 119.802 196.303 120.127 196.004 120.777V127H193.464V117.49H195.863L195.934 118.624C196.443 117.751 197.149 117.314 198.052 117.314C198.333 117.314 198.597 117.353 198.843 117.429L198.808 119.872ZM202.42 117.49L202.499 118.554C203.173 117.728 204.084 117.314 205.232 117.314C206.457 117.314 207.298 117.798 207.755 118.765C208.423 117.798 209.375 117.314 210.611 117.314C211.643 117.314 212.41 117.616 212.914 118.22C213.418 118.817 213.67 119.72 213.67 120.927V127H211.121V120.936C211.121 120.396 211.016 120.004 210.805 119.758C210.594 119.506 210.222 119.38 209.688 119.38C208.927 119.38 208.399 119.743 208.106 120.47L208.115 127H205.575V120.944C205.575 120.394 205.467 119.995 205.25 119.749C205.033 119.503 204.664 119.38 204.143 119.38C203.422 119.38 202.9 119.679 202.578 120.276V127H200.038V117.49H202.42ZM221.141 127C221.023 126.771 220.938 126.487 220.886 126.147C220.271 126.833 219.471 127.176 218.486 127.176C217.555 127.176 216.781 126.906 216.166 126.367C215.557 125.828 215.252 125.148 215.252 124.328C215.252 123.32 215.624 122.547 216.368 122.008C217.118 121.469 218.199 121.196 219.611 121.19H220.78V120.646C220.78 120.206 220.666 119.854 220.438 119.591C220.215 119.327 219.86 119.195 219.374 119.195C218.946 119.195 218.609 119.298 218.363 119.503C218.123 119.708 218.003 119.989 218.003 120.347H215.463C215.463 119.796 215.633 119.286 215.973 118.817C216.312 118.349 216.793 117.982 217.414 117.719C218.035 117.449 218.732 117.314 219.506 117.314C220.678 117.314 221.606 117.61 222.292 118.202C222.983 118.788 223.329 119.614 223.329 120.681V124.803C223.335 125.705 223.461 126.388 223.707 126.851V127H221.141ZM219.04 125.233C219.415 125.233 219.761 125.151 220.077 124.987C220.394 124.817 220.628 124.592 220.78 124.311V122.676H219.831C218.56 122.676 217.883 123.115 217.801 123.994L217.792 124.144C217.792 124.46 217.903 124.721 218.126 124.926C218.349 125.131 218.653 125.233 219.04 125.233ZM228.321 115.152V117.49H229.947V119.354H228.321V124.1C228.321 124.451 228.389 124.703 228.523 124.855C228.658 125.008 228.916 125.084 229.297 125.084C229.578 125.084 229.827 125.063 230.044 125.022V126.947C229.546 127.1 229.033 127.176 228.506 127.176C226.725 127.176 225.816 126.276 225.781 124.478V119.354H224.393V117.49H225.781V115.152H228.321ZM234.043 127H231.494V117.49H234.043V127ZM231.345 115.029C231.345 114.648 231.471 114.335 231.723 114.089C231.98 113.843 232.329 113.72 232.769 113.72C233.202 113.72 233.548 113.843 233.806 114.089C234.063 114.335 234.192 114.648 234.192 115.029C234.192 115.416 234.061 115.732 233.797 115.979C233.539 116.225 233.196 116.348 232.769 116.348C232.341 116.348 231.995 116.225 231.731 115.979C231.474 115.732 231.345 115.416 231.345 115.029ZM235.748 122.157C235.748 121.214 235.93 120.373 236.293 119.635C236.656 118.896 237.178 118.325 237.857 117.921C238.543 117.517 239.337 117.314 240.239 117.314C241.522 117.314 242.568 117.707 243.377 118.492C244.191 119.277 244.646 120.344 244.739 121.691L244.757 122.342C244.757 123.801 244.35 124.973 243.535 125.857C242.721 126.736 241.628 127.176 240.257 127.176C238.886 127.176 237.79 126.736 236.97 125.857C236.155 124.979 235.748 123.783 235.748 122.271V122.157ZM238.288 122.342C238.288 123.244 238.458 123.936 238.798 124.416C239.138 124.891 239.624 125.128 240.257 125.128C240.872 125.128 241.353 124.894 241.698 124.425C242.044 123.95 242.217 123.194 242.217 122.157C242.217 121.272 242.044 120.587 241.698 120.101C241.353 119.614 240.866 119.371 240.239 119.371C239.618 119.371 239.138 119.614 238.798 120.101C238.458 120.581 238.288 121.328 238.288 122.342ZM248.659 117.49L248.738 118.589C249.418 117.739 250.329 117.314 251.472 117.314C252.479 117.314 253.229 117.61 253.722 118.202C254.214 118.794 254.466 119.679 254.478 120.856V127H251.938V120.918C251.938 120.379 251.82 119.989 251.586 119.749C251.352 119.503 250.962 119.38 250.417 119.38C249.702 119.38 249.166 119.685 248.809 120.294V127H246.269V117.49H248.659ZM270.166 116.339H266.246V127H263.609V116.339H259.742V114.203H270.166V116.339ZM275.097 127.176C273.702 127.176 272.565 126.748 271.687 125.893C270.813 125.037 270.377 123.897 270.377 122.474V122.228C270.377 121.272 270.562 120.42 270.931 119.67C271.3 118.914 271.821 118.334 272.495 117.93C273.175 117.52 273.948 117.314 274.815 117.314C276.116 117.314 277.139 117.725 277.883 118.545C278.633 119.365 279.008 120.528 279.008 122.034V123.071H272.952C273.034 123.692 273.28 124.19 273.69 124.565C274.106 124.94 274.631 125.128 275.264 125.128C276.242 125.128 277.007 124.773 277.558 124.064L278.806 125.462C278.425 126.001 277.909 126.423 277.259 126.728C276.608 127.026 275.888 127.176 275.097 127.176ZM274.807 119.371C274.303 119.371 273.893 119.541 273.576 119.881C273.266 120.221 273.066 120.707 272.979 121.34H276.512V121.138C276.5 120.575 276.348 120.142 276.055 119.837C275.762 119.526 275.346 119.371 274.807 119.371ZM284.413 125.128C284.882 125.128 285.263 124.999 285.556 124.741C285.849 124.483 286.001 124.141 286.013 123.713H288.395C288.389 124.357 288.213 124.949 287.867 125.488C287.521 126.021 287.047 126.438 286.443 126.736C285.846 127.029 285.184 127.176 284.457 127.176C283.098 127.176 282.025 126.745 281.24 125.884C280.455 125.017 280.062 123.821 280.062 122.298V122.131C280.062 120.666 280.452 119.497 281.231 118.624C282.011 117.751 283.08 117.314 284.439 117.314C285.629 117.314 286.581 117.654 287.296 118.334C288.017 119.008 288.383 119.907 288.395 121.032H286.013C286.001 120.54 285.849 120.142 285.556 119.837C285.263 119.526 284.876 119.371 284.396 119.371C283.804 119.371 283.355 119.588 283.051 120.021C282.752 120.449 282.603 121.146 282.603 122.113V122.377C282.603 123.355 282.752 124.059 283.051 124.486C283.35 124.914 283.804 125.128 284.413 125.128ZM292.323 118.527C292.997 117.719 293.844 117.314 294.863 117.314C296.926 117.314 297.972 118.513 298.001 120.909V127H295.461V120.979C295.461 120.435 295.344 120.033 295.109 119.775C294.875 119.512 294.485 119.38 293.94 119.38C293.196 119.38 292.657 119.667 292.323 120.241V127H289.783V113.5H292.323V118.527ZM302.255 117.49L302.334 118.589C303.014 117.739 303.925 117.314 305.067 117.314C306.075 117.314 306.825 117.61 307.317 118.202C307.81 118.794 308.062 119.679 308.073 120.856V127H305.533V120.918C305.533 120.379 305.416 119.989 305.182 119.749C304.947 119.503 304.558 119.38 304.013 119.38C303.298 119.38 302.762 119.685 302.404 120.294V127H299.864V117.49H302.255ZM309.611 122.157C309.611 121.214 309.793 120.373 310.156 119.635C310.52 118.896 311.041 118.325 311.721 117.921C312.406 117.517 313.2 117.314 314.103 117.314C315.386 117.314 316.432 117.707 317.24 118.492C318.055 119.277 318.509 120.344 318.603 121.691L318.62 122.342C318.62 123.801 318.213 124.973 317.398 125.857C316.584 126.736 315.491 127.176 314.12 127.176C312.749 127.176 311.653 126.736 310.833 125.857C310.019 124.979 309.611 123.783 309.611 122.271V122.157ZM312.151 122.342C312.151 123.244 312.321 123.936 312.661 124.416C313.001 124.891 313.487 125.128 314.12 125.128C314.735 125.128 315.216 124.894 315.562 124.425C315.907 123.95 316.08 123.194 316.08 122.157C316.08 121.272 315.907 120.587 315.562 120.101C315.216 119.614 314.729 119.371 314.103 119.371C313.481 119.371 313.001 119.614 312.661 120.101C312.321 120.581 312.151 121.328 312.151 122.342ZM322.865 127H320.316V113.5H322.865V127ZM324.57 122.157C324.57 121.214 324.752 120.373 325.115 119.635C325.479 118.896 326 118.325 326.68 117.921C327.365 117.517 328.159 117.314 329.062 117.314C330.345 117.314 331.391 117.707 332.199 118.492C333.014 119.277 333.468 120.344 333.562 121.691L333.579 122.342C333.579 123.801 333.172 124.973 332.357 125.857C331.543 126.736 330.45 127.176 329.079 127.176C327.708 127.176 326.612 126.736 325.792 125.857C324.978 124.979 324.57 123.783 324.57 122.271V122.157ZM327.11 122.342C327.11 123.244 327.28 123.936 327.62 124.416C327.96 124.891 328.446 125.128 329.079 125.128C329.694 125.128 330.175 124.894 330.521 124.425C330.866 123.95 331.039 123.194 331.039 122.157C331.039 121.272 330.866 120.587 330.521 120.101C330.175 119.614 329.688 119.371 329.062 119.371C328.44 119.371 327.96 119.614 327.62 120.101C327.28 120.581 327.11 121.328 327.11 122.342ZM334.774 122.175C334.774 120.716 335.12 119.541 335.812 118.65C336.509 117.76 337.446 117.314 338.624 117.314C339.667 117.314 340.479 117.672 341.059 118.387L341.164 117.49H343.467V126.684C343.467 127.516 343.276 128.239 342.896 128.854C342.521 129.47 341.99 129.938 341.305 130.261C340.619 130.583 339.816 130.744 338.896 130.744C338.199 130.744 337.52 130.604 336.857 130.322C336.195 130.047 335.694 129.689 335.354 129.25L336.479 127.703C337.112 128.412 337.88 128.767 338.782 128.767C339.456 128.767 339.98 128.585 340.355 128.222C340.73 127.864 340.918 127.354 340.918 126.692V126.183C340.332 126.845 339.562 127.176 338.606 127.176C337.464 127.176 336.538 126.73 335.829 125.84C335.126 124.943 334.774 123.757 334.774 122.28V122.175ZM337.314 122.359C337.314 123.221 337.487 123.897 337.833 124.39C338.179 124.876 338.653 125.119 339.257 125.119C340.03 125.119 340.584 124.829 340.918 124.249V120.25C340.578 119.67 340.03 119.38 339.274 119.38C338.665 119.38 338.185 119.629 337.833 120.127C337.487 120.625 337.314 121.369 337.314 122.359ZM348.978 123.405L350.735 117.49H353.46L349.637 128.477L349.426 128.978C348.857 130.22 347.92 130.841 346.613 130.841C346.244 130.841 345.869 130.785 345.488 130.674V128.749L345.875 128.758C346.355 128.758 346.713 128.685 346.947 128.538C347.188 128.392 347.375 128.148 347.51 127.809L347.809 127.026L344.478 117.49H347.211L348.978 123.405Z" fill="black"/>
<rect width="140" height="140" transform="translate(6 10)" fill="black"/>
<path d="M112.189 96.3829C112.813 103.125 111.861 108.522 109.333 112.574C106.803 116.601 102.957 118.853 97.7972 119.33C93.2334 119.753 89.4281 118.339 86.3814 115.091L86.2897 119.611L76.1767 120.547L70.6476 60.8019L81.8886 59.7616L83.872 81.1934C86.1843 77.9195 89.4539 76.087 93.6806 75.6958C98.8149 75.2207 103.009 76.7417 106.264 80.2588C109.542 83.7476 111.498 88.9148 112.132 95.7606L112.189 96.3829ZM100.873 96.6064C100.479 92.3538 99.518 89.3174 97.9896 87.4974C96.4588 85.6514 94.358 84.8521 91.6871 85.0992C88.1086 85.4304 85.7808 87.1235 84.7036 90.1785L86.2406 106.787C87.8885 109.616 90.5147 110.864 94.1191 110.53C97.7494 110.194 99.9695 108.184 100.779 104.5C101.165 102.738 101.196 100.107 100.873 96.6064Z" fill="#04D361"/>
<rect x="76" y="123.318" width="11" height="11" transform="rotate(-6.30513 76 123.318)" fill="#04D361"/>
<path d="M44.032 68.028C43.3076 61.5842 44.2512 56.2239 46.8627 51.947C49.5001 47.6673 53.4195 45.235 58.6212 44.6503C63.2276 44.1325 66.9892 45.3082 69.9061 48.1774L69.9268 44.1656L80.0972 43.0223L84.6616 83.6259C85.0747 87.3007 84.5929 90.5912 83.2162 93.4976C81.8655 96.401 79.7562 98.7346 76.8884 100.498C74.0206 102.262 70.5552 103.372 66.4922 103.829C63.4127 104.175 60.3409 103.891 57.277 102.978C54.216 102.09 51.8259 100.761 50.1068 98.9884L54.3075 91.5979C57.4544 94.4151 61.0205 95.5996 65.0058 95.1516C67.9818 94.8171 70.2078 93.7545 71.6837 91.9638C73.1624 90.199 73.7375 87.8545 73.4087 84.9302L73.1556 82.6787C70.8965 85.8939 67.6578 87.7386 63.4396 88.2128C58.3932 88.7801 54.0833 87.273 50.5098 83.6914C46.9593 80.0811 44.8175 75.0152 44.0844 68.4938L44.032 68.028ZM55.342 67.582C55.7697 71.3862 56.8691 74.2894 58.6403 76.2915C60.4086 78.2678 62.6255 79.1061 65.291 78.8065C68.707 78.4225 71.0085 76.8666 72.1956 74.1388L70.2101 56.4766C68.4212 54.0833 65.8575 53.0743 62.5192 53.4496C59.8278 53.7522 57.8294 55.0906 56.5239 57.4648C55.2444 59.8361 54.8504 63.2085 55.342 67.582Z" fill="#04D361"/>
<rect x="68.0242" y="30.3525" width="11" height="11" transform="rotate(-6.30398 68.0242 30.3525)" fill="#04D361"/>
<defs>
<clipPath id="clip0">
<rect width="206" height="94" fill="white" transform="translate(154 18)"/>
</clipPath>
</defs>
</svg>
