<svg width="50" height="50" viewBox="0 0 50 50" fill="none" xmlns="http://www.w3.org/2000/svg">
<rect x="0.5" y="0.5" width="49" height="49" rx="24.5" fill="#FC941E"/>
<g clip-path="url(#clip0)">
<path d="M43 17.078C41.81 17.6 40.542 17.946 39.22 18.114C40.58 17.302 41.618 16.026 42.106 14.488C40.838 15.244 39.438 15.778 37.946 16.076C36.742 14.794 35.026 14 33.154 14C29.522 14 26.598 16.948 26.598 20.562C26.598 21.082 26.642 21.582 26.75 22.058C21.296 21.792 16.47 19.178 13.228 15.196C12.662 16.178 12.33 17.302 12.33 18.512C12.33 20.784 13.5 22.798 15.244 23.964C14.19 23.944 13.156 23.638 12.28 23.156C12.28 23.176 12.28 23.202 12.28 23.228C12.28 26.416 14.554 29.064 17.536 29.674C17.002 29.82 16.42 29.89 15.816 29.89C15.396 29.89 14.972 29.866 14.574 29.778C15.424 32.376 17.836 34.286 20.704 34.348C18.472 36.094 15.638 37.146 12.57 37.146C12.032 37.146 11.516 37.122 11 37.056C13.906 38.93 17.35 40 21.064 40C33.136 40 39.736 30 39.736 21.332C39.736 21.042 39.726 20.762 39.712 20.484C41.014 19.56 42.108 18.406 43 17.078Z" fill="#231F20"/>
</g>
<rect x="0.5" y="0.5" width="49" height="49" rx="24.5" stroke="black"/>
<defs>
<clipPath id="clip0">
<rect width="32" height="32" fill="white" transform="translate(11 11)"/>
</clipPath>
</defs>
</svg>
